<?xml version="1.0" standalone="no"?>
<!DOCTYPE svg PUBLIC "-//W3C//DTD SVG 20010904//EN"
 "http://www.w3.org/TR/2001/REC-SVG-20010904/DTD/svg10.dtd">
<svg version="1.0" xmlns="http://www.w3.org/2000/svg"
 width="1682.000000pt" height="1682.000000pt" viewBox="0 0 1682.000000 1682.000000"
 preserveAspectRatio="xMidYMid meet">
<metadata>
Created by potrace 1.14, written by Peter Selinger 2001-2017
</metadata>
<g transform="translate(0.000000,1682.000000) scale(0.100000,-0.100000)"
fill="#000000" stroke="none">
<path d="M15691 10334 c-73 -19 -171 -73 -283 -157 -151 -112 -250 -181 -298
-209 -185 -106 -333 -88 -470 58 l-58 62 1 71 c1 75 -3 87 -26 78 -13 -5 -14
-267 -13 -1859 1 -1815 1 -1853 20 -1853 19 0 19 25 19 1079 l0 1080 33 -40
34 -39 0 -880 c1 -998 2 -1021 35 -1085 18 -34 73 -92 114 -120 67 -46 111
-49 950 -45 433 1 801 5 819 9 49 9 92 34 139 83 75 76 82 102 88 298 5 207
-13 288 -79 363 -34 37 -99 80 -136 88 -19 4 -240 9 -490 11 -250 2 -486 4
-524 6 l-69 2 -2 36 c-2 20 0 41 4 47 4 7 176 12 531 15 289 2 538 7 554 11
69 17 154 84 194 154 25 45 33 181 35 663 2 491 2 494 -21 542 -29 65 -118
152 -168 166 -55 16 -154 23 -344 25 l-164 1 0 565 -1 566 -32 40 c-53 67
-130 134 -180 155 -60 26 -142 31 -212 13z m364 -2116 c1 -62 0 -68 -19 -69
-24 -1 -515 0 -532 0 -6 1 -9 27 -8 69 1 37 2 67 3 68 1 1 125 1 277 0 l277
-1 2 -67z"/>
<path d="M7657 10259 c-96 -23 -191 -103 -236 -198 l-26 -56 -3 -1605 c-2
-1118 1 -1618 8 -1648 25 -101 76 -174 159 -226 85 -54 78 -54 881 -54 480 -1
765 3 800 9 105 20 196 92 247 197 l28 57 0 345 0 345 -26 56 c-47 101 -128
171 -229 200 -33 9 -159 13 -470 13 l-425 1 0 675 0 675 414 2 c490 2 511 5
618 98 43 36 97 132 108 190 3 17 6 166 6 332 0 248 -3 311 -16 348 -41 121
-113 195 -230 235 -54 19 -90 19 -813 19 -417 -1 -774 -5 -795 -10z"/>
<path d="M13729 10266 c-2 -2 -28 -7 -58 -10 -106 -13 -219 -103 -254 -204
-27 -78 -29 -131 -29 -749 l-1 -593 -31 -1 c-17 0 -228 0 -470 -1 -471 0 -519
-5 -601 -52 -41 -24 -87 -70 -117 -117 -20 -31 -35 -86 -44 -159 -9 -71 -9
-1482 0 -1576 8 -88 22 -129 62 -187 41 -57 88 -93 160 -120 l59 -22 850 0
c468 0 875 4 905 8 152 22 257 129 281 288 11 80 16 3067 4 3169 -9 83 -22
122 -56 173 -49 74 -122 127 -199 142 -36 7 -454 17 -461 11z m-348 -2478 c1
-18 2 -130 3 -249 l1 -216 -247 0 -248 0 -1 46 c0 25 -2 137 -3 249 l-2 202
248 0 248 0 1 -32z"/>
<path d="M385 8989 c-139 -8 -153 -11 -221 -54 -58 -37 -104 -92 -136 -161
l-22 -49 -2 -975 c-1 -1051 -2 -1026 51 -1109 54 -86 135 -141 233 -161 28 -5
357 -8 812 -7 l765 2 56 27 c100 46 186 154 204 258 12 64 8 423 -5 470 -34
127 -114 213 -236 255 -43 15 -102 17 -479 19 l-430 1 -2 193 -2 192 419 0
c231 0 421 0 423 0 1 0 28 8 60 19 119 41 197 122 237 245 14 44 19 456 6 541
-20 132 -118 242 -249 280 -50 15 -135 17 -710 18 -358 1 -706 -1 -772 -4z"/>
<path d="M2994 8989 c-138 -10 -227 -66 -281 -177 -27 -55 -28 -63 -30 -237
-2 -169 -1 -183 21 -237 30 -72 67 -117 131 -156 74 -45 131 -52 435 -51 151
0 287 0 303 0 26 -1 27 -3 27 -50 l0 -49 -524 -1 c-344 0 -538 -3 -564 -10
-93 -26 -187 -119 -213 -214 -11 -40 -14 -139 -19 -822 -1 -126 1 -245 4 -264
14 -73 76 -161 142 -202 76 -47 82 -47 956 -45 l823 1 50 23 c82 38 146 110
175 197 11 32 14 224 15 1015 1 594 -2 995 -8 1025 -25 128 -129 233 -251 252
-47 8 -1089 9 -1192 2z m606 -1743 l0 -71 -277 0 -278 0 -3 71 -3 72 281 -1
280 0 0 -71z"/>
<path d="M4943 8988 c-111 -12 -198 -63 -256 -151 -67 -101 -65 -50 -63 -1122
l1 -970 31 -65 c40 -83 92 -135 174 -174 l65 -31 305 0 305 0 67 33 c82 40
148 111 179 190 23 57 23 60 21 588 l-1 530 140 1 c121 0 139 -2 139 -16 1 -9
2 -245 4 -526 3 -456 5 -515 21 -560 35 -100 106 -175 207 -217 51 -21 66 -22
354 -23 237 0 307 3 330 14 16 8 43 21 60 29 76 37 145 124 168 215 20 77 20
1938 0 2005 -37 121 -118 200 -248 242 -30 10 -255 13 -990 14 -523 0 -979 -2
-1013 -6z"/>
<path d="M10157 8994 c-1 -1 -40 -4 -87 -8 -47 -3 -101 -10 -120 -16 -87 -24
-180 -110 -214 -200 -10 -24 -20 -81 -24 -125 -3 -44 -6 -471 -6 -950 0 -935
1 -957 51 -1045 54 -95 142 -152 259 -168 79 -11 1590 -9 1644 3 113 23 235
140 254 242 15 78 18 230 17 1033 0 979 0 970 -55 1063 -26 45 -86 101 -136
127 -48 26 -126 37 -275 39 -162 3 -1306 7 -1308 5z m1025 -722 c57 -23 61
-55 60 -492 0 -399 -3 -446 -38 -480 l-24 -25 -350 0 -350 0 -32 33 -33 32 -2
398 c-1 218 2 419 6 445 11 66 35 88 107 97 93 11 625 5 656 -8z"/>
</g>
</svg>
