<?xml version="1.0" encoding="utf-8"?>
<!-- Generator: Adobe Illustrator 17.0.0, SVG Export Plug-In . SVG Version: 6.00 Build 0)  -->
<!DOCTYPE svg PUBLIC "-//W3C//DTD SVG 1.1//EN" "http://www.w3.org/Graphics/SVG/1.1/DTD/svg11.dtd">
<svg version="1.1" id="Layer_1" xmlns="http://www.w3.org/2000/svg" xmlns:xlink="http://www.w3.org/1999/xlink" x="0px" y="0px"
	 width="116.581px" height="151.379px" viewBox="0 0 116.581 151.379" enable-background="new 0 0 116.581 151.379"
	 xml:space="preserve">
<path fill="#FFFFFF" d="M11.118,71.833h-3.59c-0.276,0-0.475-0.226-0.475-0.477V68.62c0-0.251,0.199-0.476,0.475-0.476h11.146
	c0.275,0,0.476,0.225,0.476,0.476v2.736c0,0.251-0.201,0.477-0.476,0.477h-3.59v13.404c0,0.251-0.226,0.477-0.479,0.477h-3.009
	c-0.252,0-0.478-0.226-0.478-0.477V71.833z"/>
<path fill="#FFFFFF" d="M21.908,68.62c0-0.251,0.228-0.477,0.478-0.477h3.011c0.25,0,0.478,0.226,0.478,0.477v16.617
	c0,0.251-0.228,0.477-0.478,0.477h-3.011c-0.25,0-0.478-0.226-0.478-0.477V68.62z"/>
<path fill="#FFFFFF" d="M30.569,68.746c0-0.326,0.252-0.603,0.604-0.603h2.936c0.326,0,0.603,0.277,0.603,0.603v6.602l5.572-6.954
	c0.099-0.126,0.326-0.251,0.476-0.251h3.163c0.477,0,0.728,0.552,0.453,0.929l-5.873,7.355l6.399,8.333
	c0.276,0.377,0,0.928-0.478,0.928h-3.462c-0.176,0-0.403-0.1-0.454-0.175l-5.796-7.881v7.479c0,0.326-0.277,0.603-0.603,0.603
	h-2.936c-0.352,0-0.604-0.277-0.604-0.603V68.746z"/>
<path fill="#FFFFFF" d="M47.758,68.746c0-0.326,0.252-0.603,0.604-0.603h2.936c0.326,0,0.603,0.277,0.603,0.603v6.602l5.572-6.954
	c0.099-0.126,0.326-0.251,0.476-0.251h3.163c0.477,0,0.728,0.552,0.453,0.929l-5.873,7.355l6.399,8.333
	c0.276,0.377,0,0.928-0.478,0.928h-3.462c-0.176,0-0.403-0.1-0.454-0.175l-5.796-7.881v7.479c0,0.326-0.277,0.603-0.603,0.603
	h-2.936c-0.352,0-0.604-0.277-0.604-0.603V68.746z"/>
<path fill="#FFFFFF" d="M64.556,68.62c0-0.251,0.227-0.477,0.478-0.477h3.086c0.277,0,0.478,0.226,0.478,0.477v10.166
	c0,1.757,1.305,3.163,3.087,3.163c1.808,0,3.138-1.406,3.138-3.163V68.62c0-0.251,0.201-0.477,0.476-0.477h3.088
	c0.251,0,0.477,0.226,0.477,0.477v10.367c0,3.815-3.213,6.978-7.179,6.978c-3.941,0-7.129-3.163-7.129-6.978V68.62z"/>
<path fill="#FFFFFF" d="M83.368,68.344c0-0.251,0.226-0.451,0.477-0.451h0.627l10.015,9.639h0.027V68.62
	c0-0.251,0.2-0.476,0.475-0.476h3.013c0.251,0,0.476,0.225,0.476,0.476v16.893c0,0.251-0.225,0.452-0.476,0.452h-0.403
	c-0.075,0-0.275-0.075-0.326-0.125l-9.914-9.966h-0.025v9.364c0,0.251-0.201,0.476-0.477,0.476H83.87
	c-0.251,0-0.478-0.225-0.478-0.476L83.368,68.344z"/>
<path fill="#FFFFFF" d="M16.59,94.099c5.021,0,9.036,4.041,9.036,9.062c0,5.019-4.015,9.011-9.036,9.011
	c-5.021,0-9.011-3.992-9.011-9.011C7.579,98.14,11.569,94.099,16.59,94.099 M16.59,108.156c2.762,0,5.021-2.26,5.021-4.995
	c0-2.762-2.259-5.046-5.021-5.046c-2.736,0-4.995,2.284-4.995,5.046C11.595,105.896,13.854,108.156,16.59,108.156"/>
<path fill="#FFFFFF" d="M28.235,94.827c0-0.251,0.201-0.477,0.479-0.477H31.7c0.251,0,0.476,0.226,0.476,0.477v13.404h5.974
	c0.276,0,0.478,0.226,0.478,0.477v2.736c0,0.251-0.202,0.477-0.478,0.477h-9.436c-0.278,0-0.479-0.226-0.479-0.477V94.827z"/>
<path fill="#FFFFFF" d="M40.282,111.269l7.856-16.893c0.075-0.151,0.251-0.276,0.427-0.276h0.251c0.177,0,0.35,0.125,0.427,0.276
	l7.856,16.893c0.151,0.326-0.05,0.652-0.427,0.652h-2.786c-0.451,0-0.651-0.15-0.878-0.628l-0.904-1.982h-6.826l-0.905,2.008
	c-0.127,0.302-0.401,0.602-0.904,0.602h-2.762C40.332,111.921,40.131,111.595,40.282,111.269 M50.598,105.897l-1.907-4.142h-0.027
	l-1.88,4.142H50.598z"/>
<path fill="#FFFFFF" d="M61.969,94.501c0.025-0.226,0.251-0.401,0.452-0.401h0.402c0.125,0,0.351,0.1,0.426,0.251l5.824,10.843
	h0.049l5.824-10.843c0.076-0.151,0.301-0.251,0.426-0.251h0.403c0.2,0,0.426,0.175,0.451,0.401l2.837,16.868
	c0.05,0.326-0.176,0.552-0.478,0.552h-2.962c-0.225,0-0.451-0.201-0.476-0.401l-1.13-7.757h-0.05l-4.217,8.133
	c-0.075,0.151-0.301,0.276-0.427,0.276h-0.452c-0.15,0-0.351-0.125-0.426-0.276l-4.242-8.133h-0.05l-1.105,7.757
	c-0.024,0.2-0.225,0.401-0.475,0.401H59.61c-0.302,0-0.528-0.226-0.477-0.552L61.969,94.501z"/>
<path fill="#FFFFFF" d="M6.6,137.475l7.856-16.893c0.075-0.151,0.251-0.276,0.427-0.276h0.251c0.177,0,0.35,0.125,0.427,0.276
	l7.856,16.893c0.151,0.326-0.05,0.652-0.427,0.652h-2.786c-0.451,0-0.652-0.15-0.878-0.628l-0.904-1.982h-6.827l-0.904,2.008
	c-0.127,0.302-0.401,0.602-0.904,0.602H7.025C6.65,138.128,6.449,137.802,6.6,137.475 M16.916,132.103l-1.907-4.142h-0.027
	l-1.88,4.142H16.916z"/>
<path fill="#FFFFFF" d="M23.33,121.16c-0.102-0.352,0.102-0.603,0.452-0.603h2.937c0.2,0,0.401,0.176,0.451,0.352l2.159,8.509h0.101
	l3.89-8.835c0.074-0.152,0.226-0.277,0.427-0.277h0.451c0.228,0,0.377,0.125,0.427,0.277l3.891,8.835h0.1l2.159-8.509
	c0.05-0.176,0.25-0.352,0.451-0.352h2.937c0.353,0,0.553,0.251,0.452,0.603l-4.744,16.867c-0.05,0.201-0.251,0.352-0.451,0.352
	h-0.402c-0.176,0-0.352-0.125-0.427-0.277l-4.593-10.265h-0.075l-4.57,10.265c-0.074,0.152-0.25,0.277-0.425,0.277h-0.403
	c-0.2,0-0.401-0.151-0.451-0.352L23.33,121.16z"/>
<path fill="#FFFFFF" d="M44.567,137.475l7.855-16.893c0.075-0.151,0.251-0.276,0.427-0.276H53.1c0.176,0,0.351,0.125,0.428,0.276
	l7.855,16.893c0.15,0.326-0.05,0.652-0.427,0.652H58.17c-0.451,0-0.652-0.15-0.878-0.628l-0.904-1.982h-6.827l-0.905,2.008
	c-0.125,0.302-0.4,0.602-0.903,0.602h-2.761C44.615,138.128,44.415,137.802,44.567,137.475 M54.882,132.103l-1.907-4.142h-0.026
	l-1.882,4.142H54.882z"/>
<path fill="#FFFFFF" d="M63.96,121.035c0-0.251,0.201-0.477,0.476-0.477h7.506c3.012,0,5.472,2.435,5.472,5.422
	c0,2.309-1.531,4.166-3.715,5.045l3.438,6.376c0.177,0.326,0,0.727-0.425,0.727h-3.339c-0.2,0-0.352-0.126-0.403-0.225l-3.337-6.652
	h-1.732v6.401c0,0.251-0.225,0.476-0.476,0.476h-2.989c-0.275,0-0.476-0.225-0.476-0.476V121.035z M71.616,128.063
	c1.029,0,1.907-0.954,1.907-2.008c0-1.055-0.878-1.908-1.907-1.908h-3.715v3.916H71.616z"/>
<path fill="#FFFFFF" d="M81.217,121.034c0-0.251,0.201-0.476,0.452-0.476h6.125c4.844,0,8.81,3.94,8.81,8.759
	c0,4.87-3.966,8.811-8.81,8.811h-6.125c-0.251,0-0.452-0.226-0.452-0.477V121.034z M87.543,134.413c2.836,0,4.895-2.234,4.895-5.096
	c0-2.836-2.059-5.07-4.895-5.07h-2.41v10.166H87.543z"/>
<path fill="#FFFFFF" d="M99.019,135.743l1.18-2.083c0.201-0.326,0.677-0.276,0.853-0.15c0.101,0.049,1.908,1.379,3.565,1.379
	c1.004,0,1.732-0.626,1.732-1.505c0-1.054-0.879-1.858-2.586-2.536c-2.158-0.853-4.869-2.535-4.869-5.546
	c0-2.486,1.933-4.997,5.798-4.997c2.61,0,4.619,1.332,5.372,1.884c0.301,0.175,0.251,0.627,0.15,0.803l-1.28,1.933
	c-0.176,0.276-0.627,0.502-0.853,0.326c-0.226-0.125-2.058-1.506-3.589-1.506c-0.905,0-1.582,0.602-1.582,1.28
	c0,0.929,0.753,1.632,2.736,2.435c1.958,0.778,5.07,2.309,5.07,5.722c0,2.586-2.234,5.197-5.924,5.197
	c-3.262,0-5.07-1.356-5.647-1.933C98.894,136.195,98.819,136.095,99.019,135.743"/>
<g>
	<path fill="#FFFFFF" d="M13.035,55.267c1.981,0,2.922-1.591,3.084-1.948v-5.296c0,0-1.137-0.778-2.823-0.778
		c-2.178,0-3.704,1.785-3.704,3.996C9.592,53.416,10.955,55.267,13.035,55.267 M12.97,44.419c1.655,0,2.825,0.619,3.118,0.715
		v-8.475c0-0.324,0.291-0.617,0.616-0.617h1.884c0.324,0,0.617,0.293,0.617,0.617v20.46c0,0.324-0.293,0.618-0.617,0.618h-0.974
		c-0.293,0-0.487-0.226-0.584-0.553l-0.26-0.942c0,0-1.56,1.818-4.125,1.818c-3.444,0-6.074-3.085-6.074-6.818
		C6.571,47.44,9.364,44.419,12.97,44.419"/>
	<path fill="#FFFFFF" d="M22.921,45.361c0-0.323,0.292-0.618,0.617-0.618h1.854c0.323,0,0.616,0.294,0.616,0.618v11.758
		c0,0.325-0.294,0.618-0.616,0.618h-1.854c-0.325,0-0.617-0.293-0.617-0.618V45.361z M22.563,40.016
		c0-1.071,0.812-1.917,1.851-1.917c1.072,0,1.916,0.846,1.916,1.917c0,1.037-0.845,1.884-1.916,1.884
		C23.376,41.9,22.563,41.053,22.563,40.016"/>
	<path fill="#FFFFFF" d="M30.229,36.658c0-0.324,0.293-0.616,0.616-0.616h1.85c0.326,0,0.62,0.292,0.62,0.616v20.461
		c0,0.324-0.294,0.618-0.62,0.618h-1.85c-0.323,0-0.616-0.294-0.616-0.618V36.658z"/>
	<path fill="#FFFFFF" d="M37.537,36.658c0-0.324,0.291-0.616,0.616-0.616h1.851c0.326,0,0.619,0.292,0.619,0.616v20.461
		c0,0.324-0.292,0.618-0.619,0.618h-1.851c-0.326,0-0.616-0.294-0.616-0.618V36.658z"/>
	<path fill="#FFFFFF" d="M52.848,49.811c-0.098-1.558-1.397-2.892-2.987-2.892c-1.755,0-3.121,1.268-3.314,2.892H52.848z
		 M49.892,44.419c3.379,0,5.975,2.533,5.975,6.009c0,0.228-0.032,0.65-0.065,0.878c-0.03,0.325-0.291,0.553-0.584,0.553h-8.834
		c0.099,1.753,1.623,3.476,3.736,3.476c1.169,0,2.241-0.521,2.891-0.945c0.389-0.226,0.616-0.355,0.876-0.031l0.91,1.233
		c0.228,0.259,0.325,0.52-0.066,0.846c-0.939,0.812-2.63,1.622-4.805,1.622c-3.93,0-6.528-3.085-6.528-6.818
		C43.397,47.57,45.994,44.419,49.892,44.419"/>
	<path fill="#FFFFFF" d="M111.886,44.453h-11.475c-0.303,0-0.57,0.239-0.57,0.57v1.804c0,0.301,0.268,0.567,0.57,0.567h11.475
		c0.299,0,0.568-0.237,0.568-0.568v-1.804C112.454,44.72,112.185,44.453,111.886,44.453"/>
	<path fill="#FFFFFF" d="M110.084,46.077h-1.803c-0.302,0-0.569,0.269-0.569,0.569v10.537c0,0.301,0.238,0.569,0.569,0.569h1.805
		c0.299,0,0.566-0.268,0.566-0.569V46.646C110.653,46.346,110.414,46.077,110.084,46.077"/>
	<path fill="#FFFFFF" d="M96.976,44.37h-1.804c-0.302,0-0.568,0.269-0.568,0.57v4.29c0,0.299,0.239,0.568,0.568,0.568h1.805
		c0.299,0,0.567-0.269,0.567-0.568v-4.29C97.544,44.639,97.305,44.37,96.976,44.37"/>
	<path fill="#FFFFFF" d="M91.671,44.718h-6.872v-5.666c0-0.293-0.233-0.555-0.554-0.555h-1.758c-0.292,0-0.539,0.295-0.539,0.555
		v7.976c0,0.314,0.259,0.553,0.554,0.553h6.548v2.597c0,1.959-1.707,4.264-4.336,4.672h-2.192c-0.294,0-0.554,0.232-0.554,0.554
		v1.758c0,0.292,0.259,0.553,0.554,0.553h2.281c4.678-0.092,7.436-4.593,7.436-7.727v-4.7
		C92.239,44.987,91.999,44.718,91.671,44.718"/>
	<path fill="#FFFFFF" d="M77.993,45.554c-0.597-0.583-1.743-1.106-3.026-1.106h-5.576c-0.63,0-0.733,0.5-0.555,0.83
		c0,0,0.499,1.041,0.693,1.437c0.194,0.397,0.353,0.796,0.873,0.796h3.826c0.88,0,1.578,0.407,1.904,0.94
		c0.444,0.727,0.519,1.451,0.519,2.749v0.134v0.006v5.783c0,0.327,0.261,0.619,0.619,0.619h1.829c0.325,0,0.615-0.291,0.615-0.619
		V50.59C79.713,48.671,79.646,47.028,77.993,45.554"/>
	<path fill="#FFFFFF" d="M66.387,44.453c0,0-0.74-0.016-1.03-0.016h-1.201c-2.371,0-3.529,1.547-3.756,1.873l-0.359-1.105
		c-0.064-0.26-0.324-0.454-0.553-0.454h-0.941c-0.325,0-0.617,0.292-0.617,0.617v11.758c0,0.325,0.292,0.617,0.617,0.617h1.56
		c0.519,0,0.877-0.064,0.877-0.617v-8.04c0.106-0.187,0.964-1.373,2.05-1.513c1.096-0.142,2.409-0.103,2.409-0.103
		c0.518,0,0.619-0.329,0.812-0.724c0.195-0.397,0.686-1.463,0.686-1.463C67.12,44.952,67.015,44.453,66.387,44.453"/>
</g>
</svg>
